<svg xmlns="http://www.w3.org/2000/svg" xmlns:xlink="http://www.w3.org/1999/xlink" version="1.1" width="805px" height="135px" viewBox="-0.5 -0.5 805 135"><defs></defs><g><path d="M 82 42 L 115.63 42" fill="none" stroke="rgb(0, 0, 0)" stroke-miterlimit="10"></path><path d="M 120.88 42 L 113.88 45.5 L 115.63 42 L 113.88 38.5 Z" fill="rgb(0, 0, 0)" stroke="rgb(0, 0, 0)" stroke-miterlimit="10"></path><rect x="2" y="2" width="80" height="80" fill="rgb(255, 255, 255)" stroke="rgb(0, 0, 0)"></rect><g transform="translate(-0.5 -0.5)"><switch><text x="42" y="46" fill="rgb(0, 0, 0)" font-family="Helvetica" font-size="12px" text-anchor="middle">Browser</text></switch></g><path d="M 202 42 L 235.63 42" fill="none" stroke="rgb(0, 0, 0)" stroke-miterlimit="10"></path><path d="M 240.88 42 L 233.88 45.5 L 235.63 42 L 233.88 38.5 Z" fill="rgb(0, 0, 0)" stroke="rgb(0, 0, 0)" stroke-miterlimit="10"></path><rect x="122" y="2" width="80" height="80" fill="rgb(255, 255, 255)" stroke="rgb(0, 0, 0)"></rect><g transform="translate(-0.5 -0.5)"><switch><text x="162" y="46" fill="rgb(0, 0, 0)" font-family="Helvetica" font-size="12px" text-anchor="middle">HTTP Request</text></switch></g><path d="M 442 42 L 475.63 42" fill="none" stroke="rgb(0, 0, 0)" stroke-miterlimit="10"></path><path d="M 480.88 42 L 473.88 45.5 L 475.63 42 L 473.88 38.5 Z" fill="rgb(0, 0, 0)" stroke="rgb(0, 0, 0)" stroke-miterlimit="10"></path><rect x="362" y="2" width="80" height="80" fill="rgb(255, 255, 255)" stroke="rgb(0, 0, 0)"></rect><g transform="translate(-0.5 -0.5)"><switch><text x="402" y="46" fill="rgb(0, 0, 0)" font-family="Helvetica" font-size="12px" text-anchor="middle">Database</text></switch></g><path d="M 322 42 L 355.63 42" fill="none" stroke="rgb(0, 0, 0)" stroke-miterlimit="10"></path><path d="M 360.88 42 L 353.88 45.5 L 355.63 42 L 353.88 38.5 Z" fill="rgb(0, 0, 0)" stroke="rgb(0, 0, 0)" stroke-miterlimit="10"></path><rect x="242" y="2" width="80" height="80" fill="rgb(255, 255, 255)" stroke="rgb(0, 0, 0)"></rect><g transform="translate(-0.5 -0.5)"><switch><text x="282" y="46" fill="rgb(0, 0, 0)" font-family="Helvetica" font-size="12px" text-anchor="middle">Server</text></switch></g><path d="M 562 42 L 595.63 42" fill="none" stroke="rgb(0, 0, 0)" stroke-miterlimit="10"></path><path d="M 600.88 42 L 593.88 45.5 L 595.63 42 L 593.88 38.5 Z" fill="rgb(0, 0, 0)" stroke="rgb(0, 0, 0)" stroke-miterlimit="10"></path><rect x="482" y="2" width="80" height="80" fill="rgb(255, 255, 255)" stroke="rgb(0, 0, 0)"></rect><g transform="translate(-0.5 -0.5)"><switch><text x="522" y="46" fill="rgb(0, 0, 0)" font-family="Helvetica" font-size="12px" text-anchor="middle">Server</text></switch></g><path d="M 682 42 L 715.63 42" fill="none" stroke="rgb(0, 0, 0)" stroke-miterlimit="10"></path><path d="M 720.88 42 L 713.88 45.5 L 715.63 42 L 713.88 38.5 Z" fill="rgb(0, 0, 0)" stroke="rgb(0, 0, 0)" stroke-miterlimit="10"></path><rect x="602" y="2" width="80" height="80" fill="rgb(255, 255, 255)" stroke="rgb(0, 0, 0)"></rect><g transform="translate(-0.5 -0.5)"><switch><text x="642" y="46" fill="rgb(0, 0, 0)" font-family="Helvetica" font-size="12px" text-anchor="middle">HTTP Response</text></switch></g><rect x="722" y="2" width="80" height="80" fill="rgb(255, 255, 255)" stroke="rgb(0, 0, 0)"></rect><g transform="translate(-0.5 -0.5)"><switch><text x="762" y="46" fill="rgb(0, 0, 0)" font-family="Helvetica" font-size="12px" text-anchor="middle">Browser</text></switch></g><path d="M 202 112 L 235.63 112" fill="none" stroke="rgb(0, 0, 0)" stroke-miterlimit="10"></path><path d="M 240.88 112 L 233.88 115.5 L 235.63 112 L 233.88 108.5 Z" fill="rgb(0, 0, 0)" stroke="rgb(0, 0, 0)" stroke-miterlimit="10"></path><rect x="2" y="92" width="200" height="40" fill="rgb(255, 255, 255)" stroke="rgb(0, 0, 0)"></rect><g transform="translate(-0.5 -0.5)"><switch><text x="102" y="116" fill="rgb(0, 0, 0)" font-family="Helvetica" font-size="12px" text-anchor="middle">200ms</text></switch></g><path d="M 442 112 L 475.63 112" fill="none" stroke="rgb(0, 0, 0)" stroke-miterlimit="10"></path><path d="M 480.88 112 L 473.88 115.5 L 475.63 112 L 473.88 108.5 Z" fill="rgb(0, 0, 0)" stroke="rgb(0, 0, 0)" stroke-miterlimit="10"></path><rect x="242" y="92" width="200" height="40" fill="rgb(255, 255, 255)" stroke="rgb(0, 0, 0)"></rect><g transform="translate(-0.5 -0.5)"><switch><text x="342" y="116" fill="rgb(0, 0, 0)" font-family="Helvetica" font-size="12px" text-anchor="middle">7000ms</text></switch></g><path d="M 562 112 L 595.63 112" fill="none" stroke="rgb(0, 0, 0)" stroke-miterlimit="10"></path><path d="M 600.88 112 L 593.88 115.5 L 595.63 112 L 593.88 108.5 Z" fill="rgb(0, 0, 0)" stroke="rgb(0, 0, 0)" stroke-miterlimit="10"></path><rect x="482" y="92" width="80" height="40" fill="rgb(255, 255, 255)" stroke="rgb(0, 0, 0)"></rect><g transform="translate(-0.5 -0.5)"><switch><text x="522" y="116" fill="rgb(0, 0, 0)" font-family="Helvetica" font-size="12px" text-anchor="middle">100ms</text></switch></g><rect x="602" y="92" width="200" height="40" fill="rgb(255, 255, 255)" stroke="rgb(0, 0, 0)"></rect><g transform="translate(-0.5 -0.5)"><switch><text x="702" y="116" fill="rgb(0, 0, 0)" font-family="Helvetica" font-size="12px" text-anchor="middle">200ms</text></switch></g></g><switch><g></g><a transform="translate(0,-5)" xlink:href="https://www.diagrams.net/doc/faq/svg-export-text-problems"><text text-anchor="middle" font-size="10px" x="50%" y="100%">Text is not SVG - cannot display</text></a></switch></svg>