<svg xmlns="http://www.w3.org/2000/svg" xmlns:xlink="http://www.w3.org/1999/xlink" version="1.1" width="340px" height="286px" viewBox="-0.5 -0.5 340 286"><defs></defs><g><path d="M 214.5 42 L 214.43 62 L 267 62 L 267 242 L 270.63 242" fill="none" stroke="rgb(0, 0, 0)" stroke-miterlimit="10"></path><path d="M 275.88 242 L 268.88 245.5 L 270.63 242 L 268.88 238.5 Z" fill="rgb(0, 0, 0)" stroke="rgb(0, 0, 0)" stroke-miterlimit="10"></path><path d="M 152 42 L 152 52 L 152 75.63" fill="none" stroke="rgb(0, 0, 0)" stroke-miterlimit="10"></path><path d="M 152 80.88 L 148.5 73.88 L 152 75.63 L 155.5 73.88 Z" fill="rgb(0, 0, 0)" stroke="rgb(0, 0, 0)" stroke-miterlimit="10"></path><rect x="72" y="2" width="190" height="40" fill="rgb(255, 255, 255)" stroke="rgb(0, 0, 0)"></rect><g transform="translate(-0.5 -0.5)"><switch><text x="167" y="26" fill="rgb(0, 0, 0)" font-family="Helvetica" font-size="12px" text-anchor="middle">User Interface</text></switch></g><path d="M 152 122 L 152 155.63" fill="none" stroke="rgb(0, 0, 0)" stroke-miterlimit="10"></path><path d="M 152 160.88 L 148.5 153.88 L 152 155.63 L 155.5 153.88 Z" fill="rgb(0, 0, 0)" stroke="rgb(0, 0, 0)" stroke-miterlimit="10"></path><path d="M 232 102 L 265 102 L 290.44 102.9" fill="none" stroke="rgb(0, 0, 0)" stroke-miterlimit="10"></path><path d="M 295.68 103.09 L 288.56 106.34 L 290.44 102.9 L 288.81 99.34 Z" fill="rgb(0, 0, 0)" stroke="rgb(0, 0, 0)" stroke-miterlimit="10"></path><rect x="72" y="82" width="160" height="40" fill="rgb(255, 255, 255)" stroke="rgb(0, 0, 0)"></rect><g transform="translate(-0.5 -0.5)"><switch><text x="152" y="106" fill="rgb(0, 0, 0)" font-family="Helvetica" font-size="12px" text-anchor="middle">Browser Engine</text></switch></g><path d="M 152 202 L 152 235.63" fill="none" stroke="rgb(0, 0, 0)" stroke-miterlimit="10"></path><path d="M 152 240.88 L 148.5 233.88 L 152 235.63 L 155.5 233.88 Z" fill="rgb(0, 0, 0)" stroke="rgb(0, 0, 0)" stroke-miterlimit="10"></path><path d="M 112 202 L 112 222 L 52 222 L 52 235.63" fill="none" stroke="rgb(0, 0, 0)" stroke-miterlimit="10"></path><path d="M 52 240.88 L 48.5 233.88 L 52 235.63 L 55.5 233.88 Z" fill="rgb(0, 0, 0)" stroke="rgb(0, 0, 0)" stroke-miterlimit="10"></path><path d="M 192 202 L 192 222 L 252 222 L 252 235.63" fill="none" stroke="rgb(0, 0, 0)" stroke-miterlimit="10"></path><path d="M 252 240.88 L 248.5 233.88 L 252 235.63 L 255.5 233.88 Z" fill="rgb(0, 0, 0)" stroke="rgb(0, 0, 0)" stroke-miterlimit="10"></path><rect x="72" y="162" width="160" height="40" fill="rgb(255, 255, 255)" stroke="rgb(0, 0, 0)"></rect><g transform="translate(-0.5 -0.5)"><switch><text x="152" y="186" fill="rgb(0, 0, 0)" font-family="Helvetica" font-size="12px" text-anchor="middle">Rendering Engine</text></switch></g><rect x="2" y="242" width="100" height="40" fill="rgb(255, 255, 255)" stroke="rgb(0, 0, 0)"></rect><g transform="translate(-0.5 -0.5)"><switch><text x="52" y="266" fill="rgb(0, 0, 0)" font-family="Helvetica" font-size="12px" text-anchor="middle">Networking</text></switch></g><rect x="102" y="242" width="100" height="40" fill="rgb(255, 255, 255)" stroke="rgb(0, 0, 0)"></rect><g transform="translate(-0.5 -0.5)"><switch><text x="152" y="266" fill="rgb(0, 0, 0)" font-family="Helvetica" font-size="12px" text-anchor="middle">JavaScript...</text></switch></g><rect x="202" y="242" width="100" height="40" fill="rgb(255, 255, 255)" stroke="rgb(0, 0, 0)"></rect><g transform="translate(-0.5 -0.5)"><switch><text x="252" y="266" fill="rgb(0, 0, 0)" font-family="Helvetica" font-size="12px" text-anchor="middle">UI Backend</text></switch></g><rect x="232" y="102" width="170" height="40" fill="rgb(255, 255, 255)" stroke="rgb(0, 0, 0)" transform="rotate(90,317,122)"></rect><g transform="translate(-0.5 -0.5)rotate(90 317 122)"><switch><text x="317" y="126" fill="rgb(0, 0, 0)" font-family="Helvetica" font-size="12px" text-anchor="middle">Data Persistence</text></switch></g></g><switch><g></g><a transform="translate(0,-5)" xlink:href="https://www.diagrams.net/doc/faq/svg-export-text-problems"><text text-anchor="middle" font-size="10px" x="50%" y="100%">Text is not SVG - cannot display</text></a></switch></svg>